<svg width="4097" height="1933" viewBox="0 0 4097 1933" fill="none" xmlns="http://www.w3.org/2000/svg">
<path d="M3169 93.75H3075V28.75H3102V19.25L3122 6.25L3142 19.25V28.75H3169V93.75Z" stroke="#AA0000" stroke-width="6"/>
<path d="M3888.5 97V3L3953.5 3V30H3963L3976 50L3963 70H3953.5V97L3888.5 97Z" stroke="#808080" stroke-width="6"/>
<path d="M1876.5 417.75H1782.5V352.75H1809.5V343.25L1829.5 330.25L1849.5 343.25V352.75H1876.5V417.75Z" stroke="#C8C8C8" stroke-width="6"/>
<path d="M2917.5 421V327H2982.5V354H2992L3005 374L2992 394H2982.5V421H2917.5Z" stroke="#808080" stroke-width="6"/>
<path d="M3818.5 417.75H3724.5V352.75H3751.5V343.25L3771.5 330.25L3791.5 343.25V352.75H3818.5V417.75Z" stroke="#C8C8C8" stroke-width="6"/>
<path d="M2440.5 579.75H2346.5V514.75H2373.5V505.25L2393.5 492.25L2413.5 505.25V514.75H2440.5V579.75Z" stroke="#AA0000" stroke-width="6"/>
<path d="M1712.5 741.75H1618.5V676.75H1645.5V667.25L1665.5 654.25L1685.5 667.25V676.75H1712.5V741.75Z" stroke="#AA0000" stroke-width="6"/>
<path d="M1305.5 813L1305.5 907L1240.5 907L1240.5 880L1231 880L1218 860L1231 840L1240.5 840L1240.5 813L1305.5 813Z" stroke="#808080" stroke-width="6"/>
<path d="M1791 813L1791 907L1726 907L1726 880L1716.5 880L1703.5 860L1716.5 840L1726 840L1726 813L1791 813Z" stroke="#808080" stroke-width="6"/>
<path d="M2276.5 813L2276.5 907L2211.5 907L2211.5 880L2202 880L2189 860L2202 840L2211.5 840L2211.5 813L2276.5 813Z" stroke="#808080" stroke-width="6"/>
<path d="M2926 903.75H2832V838.75H2859V829.25L2879 816.25L2899 829.25V838.75H2926V903.75Z" stroke="#AA0000" stroke-width="6"/>
<path d="M3575.5 903.75H3481.5V838.75H3508.5V829.25L3528.5 816.25L3548.5 829.25V838.75H3575.5V903.75Z" stroke="#C8C8C8" stroke-width="6"/>
<path d="M4061 903.75H3967V838.75H3994V829.25L4014 816.25L4034 829.25V838.75H4061V903.75Z" stroke="#C8C8C8" stroke-width="6"/>
<path d="M490 1069V975H555V1002H564.5L577.5 1022L564.5 1042H555V1069H490Z" stroke="#808080" stroke-width="6"/>
<path d="M2432 1069V975H2497V1002H2506.5L2519.5 1022L2506.5 1042H2497V1069H2432Z" stroke="#808080" stroke-width="6"/>
<path d="M334.5 1137L334.5 1231L269.5 1231L269.5 1204L260 1204L247 1184L260 1164L269.5 1164L269.5 1137L334.5 1137Z" stroke="#808080" stroke-width="6"/>
<path d="M1469.5 1227.75H1375.5V1162.75H1402.5V1153.25L1422.5 1140.25L1442.5 1153.25V1162.75H1469.5V1227.75Z" stroke="#AA0000" stroke-width="6"/>
<path d="M1791 1137L1791 1231L1726 1231L1726 1204L1716.5 1204L1703.5 1184L1716.5 1164L1726 1164L1726 1137L1791 1137Z" stroke="#808080" stroke-width="6"/>
<path d="M2276.5 1137L2276.5 1231L2211.5 1231L2211.5 1204L2202 1204L2189 1184L2202 1164L2211.5 1164L2211.5 1137L2276.5 1137Z" stroke="#808080" stroke-width="6"/>
<path d="M2604.5 1227.75H2510.5V1162.75H2537.5V1153.25L2557.5 1140.25L2577.5 1153.25V1162.75H2604.5V1227.75Z" stroke="#C8C8C8" stroke-width="6"/>
<path d="M2926 1227.75H2832V1162.75H2859V1153.25L2879 1140.25L2899 1153.25V1162.75H2926V1227.75Z" stroke="#AA0000" stroke-width="6"/>
<path d="M3090 1227.75H2996V1162.75H3023V1153.25L3043 1140.25L3063 1153.25V1162.75H3090V1227.75Z" stroke="#C8C8C8" stroke-width="6"/>
<path d="M3411.5 1227.75H3317.5V1162.75H3344.5V1153.25L3364.5 1140.25L3384.5 1153.25V1162.75H3411.5V1227.75Z" stroke="#AA0000" stroke-width="6"/>
<path d="M3733 1137L3733 1231L3668 1231L3668 1204L3658.5 1204L3645.5 1184L3658.5 1164L3668 1164L3668 1137L3733 1137Z" stroke="#808080" stroke-width="6"/>
<path d="M4061 1227.75H3967V1162.75H3994V1153.25L4014 1140.25L4034 1153.25V1162.75H4061V1227.75Z" stroke="#C8C8C8" stroke-width="6"/>
<path d="M420 1389.75H326V1324.75H353V1315.25L373 1302.25L393 1315.25V1324.75H420V1389.75Z" stroke="#C8C8C8" stroke-width="6"/>
<path d="M741.5 1389.75H647.5V1324.75H674.5V1315.25L694.5 1302.25L714.5 1315.25V1324.75H741.5V1389.75Z" stroke="#AA0000" stroke-width="6"/>
<path d="M1227 1389.75H1133V1324.75H1160V1315.25L1180 1302.25L1200 1315.25V1324.75H1227V1389.75Z" stroke="#AA0000" stroke-width="6"/>
<path d="M1876.5 1389.75H1782.5V1324.75H1809.5V1315.25L1829.5 1302.25L1849.5 1315.25V1324.75H1876.5V1389.75Z" stroke="#C8C8C8" stroke-width="6"/>
<path d="M2198 1389.75H2104V1324.75H2131V1315.25L2151 1302.25L2171 1315.25V1324.75H2198V1389.75Z" stroke="#AA0000" stroke-width="6"/>
<path d="M2847.5 1389.75H2753.5V1324.75H2780.5V1315.25L2800.5 1302.25L2820.5 1315.25V1324.75H2847.5V1389.75Z" stroke="#C8C8C8" stroke-width="6"/>
<path d="M3333 1389.75H3239V1324.75H3266V1315.25L3286 1302.25L3306 1315.25V1324.75H3333V1389.75Z" stroke="#C8C8C8" stroke-width="6"/>
<path d="M3654.5 1389.75H3560.5V1324.75H3587.5V1315.25L3607.5 1302.25L3627.5 1315.25V1324.75H3654.5V1389.75Z" stroke="#AA0000" stroke-width="6"/>
<path d="M3888.5 1393V1299H3953.5V1326H3963L3976 1346L3963 1366H3953.5V1393H3888.5Z" stroke="#808080" stroke-width="6"/>
<path d="M820 1461L820 1555L755 1555L755 1528L745.5 1528L732.5 1508L745.5 1488L755 1488L755 1461L820 1461Z" stroke="#808080" stroke-width="6"/>
<path d="M1633.5 1551.75H1539.5V1486.75H1566.5V1477.25L1586.5 1464.25L1606.5 1477.25V1486.75H1633.5V1551.75Z" stroke="#C8C8C8" stroke-width="6"/>
<path d="M1955 1551.75H1861V1486.75H1888V1477.25L1908 1464.25L1928 1477.25V1486.75H1955V1551.75Z" stroke="#AA0000" stroke-width="6"/>
<path d="M2440.5 1551.75H2346.5V1486.75H2373.5V1477.25L2393.5 1464.25L2413.5 1477.25V1486.75H2440.5V1551.75Z" stroke="#AA0000" stroke-width="6"/>
<path d="M2762 1461L2762 1555L2697 1555L2697 1528L2687.5 1528L2674.5 1508L2687.5 1488L2697 1488L2697 1461L2762 1461Z" stroke="#808080" stroke-width="6"/>
<path d="M3090 1551.75H2996V1486.75H3023V1477.25L3043 1464.25L3063 1477.25V1486.75H3090V1551.75Z" stroke="#C8C8C8" stroke-width="6"/>
<path d="M3247.5 1461L3247.5 1555L3182.5 1555L3182.5 1528L3173 1528L3160 1508L3173 1488L3182.5 1488L3182.5 1461L3247.5 1461Z" stroke="#808080" stroke-width="6"/>
<path d="M3411.5 1551.75H3317.5V1486.75H3344.5V1477.25L3364.5 1464.25L3384.5 1477.25V1486.75H3411.5V1551.75Z" stroke="#AA0000" stroke-width="6"/>
<path d="M3733 1461L3733 1555L3668 1555L3668 1528L3658.5 1528L3645.5 1508L3658.5 1488L3668 1488L3668 1461L3733 1461Z" stroke="#808080" stroke-width="6"/>
<path d="M3897 1551.75H3803V1486.75H3830V1477.25L3850 1464.25L3870 1477.25V1486.75H3897V1551.75Z" stroke="#AA0000" stroke-width="6"/>
<path d="M4061 1551.75H3967V1486.75H3994V1477.25L4014 1464.25L4034 1477.25V1486.75H4061V1551.75Z" stroke="#C8C8C8" stroke-width="6"/>
<path d="M3.00001 1717L3.00001 1623H68V1650H77.5L90.5 1670L77.5 1690H68L68 1717H3.00001Z" stroke="#808080" stroke-width="6"/>
<path d="M254.5 1713.75H160.5V1648.75H187.5V1639.25L207.5 1626.25L227.5 1639.25V1648.75H254.5V1713.75Z" stroke="#AA0000" stroke-width="6"/>
<path d="M1389.5 1713.75H1295.5V1648.75H1322.5V1639.25L1342.5 1626.25L1362.5 1639.25V1648.75H1389.5V1713.75Z" stroke="#C8C8C8" stroke-width="6"/>
<path d="M1711 1713.75H1617V1648.75H1644V1639.25L1664 1626.25L1684 1639.25V1648.75H1711V1713.75Z" stroke="#AA0000" stroke-width="6"/>
<path d="M2196.5 1713.75H2102.5V1648.75H2129.5V1639.25L2149.5 1626.25L2169.5 1639.25V1648.75H2196.5V1713.75Z" stroke="#AA0000" stroke-width="6"/>
<path d="M2360.5 1713.75H2266.5V1648.75H2293.5V1639.25L2313.5 1626.25L2333.5 1639.25V1648.75H2360.5V1713.75Z" stroke="#C8C8C8" stroke-width="6"/>
<path d="M2430.5 1717V1623H2495.5V1650H2505L2518 1670L2505 1690H2495.5V1717H2430.5Z" stroke="#808080" stroke-width="6"/>
<path d="M2682 1713.75H2588V1648.75H2615V1639.25L2635 1626.25L2655 1639.25V1648.75H2682V1713.75Z" stroke="#AA0000" stroke-width="6"/>
<path d="M2846 1713.75H2752V1648.75H2779V1639.25L2799 1626.25L2819 1639.25V1648.75H2846V1713.75Z" stroke="#C8C8C8" stroke-width="6"/>
<path d="M3167.5 1713.75H3073.5V1648.75H3100.5V1639.25L3120.5 1626.25L3140.5 1639.25V1648.75H3167.5V1713.75Z" stroke="#AA0000" stroke-width="6"/>
<path d="M3401.5 1717V1623H3466.5V1650H3476L3489 1670L3476 1690H3466.5V1717H3401.5Z" stroke="#808080" stroke-width="6"/>
<path d="M3653 1713.75H3559V1648.75H3586V1639.25L3606 1626.25L3626 1639.25V1648.75H3653V1713.75Z" stroke="#AA0000" stroke-width="6"/>
<path d="M3817 1713.75H3723V1648.75H3750V1639.25L3770 1626.25L3790 1639.25V1648.75H3817V1713.75Z" stroke="#C8C8C8" stroke-width="6"/>
<path d="M662.5 1875.75H568.5V1810.75H595.5V1801.25L615.5 1788.25L635.5 1801.25V1810.75H662.5V1875.75Z" stroke="#C8C8C8" stroke-width="6"/>
<path d="M984 1875.75H890V1810.75H917V1801.25L937 1788.25L957 1801.25V1810.75H984V1875.75Z" stroke="#AA0000" stroke-width="6"/>
<path d="M1305.5 1785L1305.5 1879L1240.5 1879L1240.5 1852L1231 1852L1218 1832L1231 1812L1240.5 1812L1240.5 1785L1305.5 1785Z" stroke="#808080" stroke-width="6"/>
<path d="M1469.5 1875.75H1375.5V1810.75H1402.5V1801.25L1422.5 1788.25L1442.5 1801.25V1810.75H1469.5V1875.75Z" stroke="#AA0000" stroke-width="6"/>
<path d="M1633.5 1875.75H1539.5V1810.75H1566.5V1801.25L1586.5 1788.25L1606.5 1801.25V1810.75H1633.5V1875.75Z" stroke="#C8C8C8" stroke-width="6"/>
<path d="M1955 1875.75H1861V1810.75H1888V1801.25L1908 1788.25L1928 1801.25V1810.75H1955V1875.75Z" stroke="#AA0000" stroke-width="6"/>
<path d="M2119 1875.75H2025V1810.75H2052V1801.25L2072 1788.25L2092 1801.25V1810.75H2119V1875.75Z" stroke="#C8C8C8" stroke-width="6"/>
<path d="M2276.5 1785L2276.5 1879L2211.5 1879L2211.5 1852L2202 1852L2189 1832L2202 1812L2211.5 1812L2211.5 1785L2276.5 1785Z" stroke="#808080" stroke-width="6"/>
<path d="M2440.5 1875.75H2346.5V1810.75H2373.5V1801.25L2393.5 1788.25L2413.5 1801.25V1810.75H2440.5V1875.75Z" stroke="#AA0000" stroke-width="6"/>
<path d="M2604.5 1875.75H2510.5V1810.75H2537.5V1801.25L2557.5 1788.25L2577.5 1801.25V1810.75H2604.5V1875.75Z" stroke="#C8C8C8" stroke-width="6"/>
<path d="M2762 1785L2762 1879L2697 1879L2697 1852L2687.5 1852L2674.5 1832L2687.5 1812L2697 1812L2697 1785L2762 1785Z" stroke="#808080" stroke-width="6"/>
<path d="M2926 1875.75H2832V1810.75H2859V1801.25L2879 1788.25L2899 1801.25V1810.75H2926V1875.75Z" stroke="#AA0000" stroke-width="6"/>
<path d="M3090 1875.75H2996V1810.75H3023V1801.25L3043 1788.25L3063 1801.25V1810.75H3090V1875.75Z" stroke="#C8C8C8" stroke-width="6"/>
<path d="M3247.5 1785L3247.5 1879L3182.5 1879L3182.5 1852L3173 1852L3160 1832L3173 1812L3182.5 1812L3182.5 1785L3247.5 1785Z" stroke="#808080" stroke-width="6"/>
<path d="M3411.5 1875.75H3317.5V1810.75H3344.5V1801.25L3364.5 1788.25L3384.5 1801.25V1810.75H3411.5V1875.75Z" stroke="#AA0000" stroke-width="6"/>
<path d="M3575.5 1875.75H3481.5V1810.75H3508.5V1801.25L3528.5 1788.25L3548.5 1801.25V1810.75H3575.5V1875.75Z" stroke="#C8C8C8" stroke-width="6"/>
<path d="M3733 1785L3733 1879L3668 1879L3668 1852L3658.5 1852L3645.5 1832L3658.5 1812L3668 1812L3668 1785L3733 1785Z" stroke="#808080" stroke-width="6"/>
<path d="M3897 1875.75H3803V1810.75H3830V1801.25L3850 1788.25L3870 1801.25V1810.75H3897V1875.75Z" stroke="#AA0000" stroke-width="6"/>
<path d="M4061 1875.75H3967V1810.75H3994V1801.25L4014 1788.25L4034 1801.25V1810.75H4061V1875.75Z" stroke="#C8C8C8" stroke-width="6"/>
</svg>
